<?xml version="1.0" standalone="no"?>
<!DOCTYPE svg PUBLIC "-//W3C//DTD SVG 20010904//EN"
 "http://www.w3.org/TR/2001/REC-SVG-20010904/DTD/svg10.dtd">
<svg version="1.0" xmlns="http://www.w3.org/2000/svg"
 width="543.000000pt" height="643.000000pt" viewBox="0 0 543.000000 643.000000"
 preserveAspectRatio="xMidYMid meet">

<g transform="translate(0.000000,643.000000) scale(0.100000,-0.100000)"
fill="#000000" stroke="none">
<path d="M260 6419 c0 -6 4 -18 9 -27 4 -9 11 -114 14 -232 4 -118 11 -231 17
-250 5 -19 10 -66 11 -105 0 -38 5 -106 10 -150 5 -44 12 -104 16 -132 3 -29
9 -53 14 -53 14 0 10 70 -5 122 -9 29 -17 119 -21 230 -4 101 -8 207 -9 236
-2 29 1 55 6 58 4 3 8 -3 9 -13 0 -10 2 -27 5 -38 2 -11 6 -31 8 -45 48 -309
114 -616 223 -1050 19 -74 36 -143 38 -152 2 -9 11 -41 19 -70 9 -29 32 -109
51 -178 90 -312 134 -455 158 -507 5 -11 6 -26 3 -32 -4 -6 -2 -11 3 -11 6 0
11 -6 11 -13 0 -7 9 -30 20 -52 29 -56 26 -15 -4 77 -62 189 -142 446 -180
578 -30 107 -94 346 -111 415 -9 39 -20 84 -25 100 -5 17 -18 71 -29 120 -11
50 -30 131 -41 180 -27 110 -26 109 -46 220 -8 50 -19 106 -24 125 -5 19 -11
53 -14 75 -3 22 -12 85 -21 140 -21 133 -34 342 -25 399 l7 46 -49 0 c-27 0
-48 -5 -48 -11z"/>
<path d="M391 6274 c1 -171 13 -203 15 -41 1 56 6 123 11 150 9 43 8 47 -9 47
-18 0 -19 -10 -17 -156z"/>
<path d="M500 6405 c0 -35 27 -85 45 -85 18 0 20 27 4 32 -9 3 -9 9 0 25 19
37 14 53 -19 53 -25 0 -30 -4 -30 -25z"/>
<path d="M1123 6400 c-13 -15 -23 -33 -23 -39 0 -6 -7 -11 -15 -11 -17 0 -20
-16 -4 -26 6 -3 8 -17 4 -31 -4 -18 0 -29 16 -42 21 -16 21 -19 5 -48 -9 -18
-20 -35 -26 -38 -5 -3 -10 -17 -10 -31 0 -15 -4 -23 -10 -19 -6 4 -8 11 -5 16
11 17 -6 30 -20 15 -19 -18 -12 -52 9 -48 13 2 17 -2 14 -15 -3 -19 -34 -24
-55 -10 -15 10 -35 -25 -27 -47 3 -9 1 -29 -4 -46 -6 -16 -7 -30 -2 -30 5 0
12 -9 15 -20 4 -11 19 -27 35 -35 32 -16 31 -39 0 -62 -27 -19 -64 -199 -54
-258 4 -24 3 -27 -6 -15 -8 11 -9 0 -4 -45 7 -67 27 -137 49 -168 8 -12 15
-36 15 -54 0 -17 5 -35 10 -38 6 -3 10 -16 10 -29 0 -32 22 -74 45 -86 25 -13
71 1 91 28 20 26 32 5 38 -68 18 -193 19 -238 3 -269 -14 -29 -14 -31 10 -46
14 -9 27 -15 29 -12 3 2 1 55 -3 117 -7 95 -6 113 6 118 8 3 17 0 19 -6 2 -7
8 -10 13 -6 5 3 9 52 9 110 0 94 2 104 18 104 16 0 20 -15 30 -132 6 -73 13
-157 15 -186 5 -64 13 -74 38 -43 15 19 19 42 21 125 2 55 1 132 0 170 -5 102
-2 105 67 52 33 -25 63 -46 68 -46 5 0 14 -5 21 -12 23 -23 48 -17 90 25 40
39 46 42 100 42 31 0 71 -4 89 -8 30 -8 32 -7 31 20 0 15 5 59 11 97 7 38 10
69 9 70 -20 12 -63 26 -78 26 -11 0 -20 5 -20 11 0 7 10 9 28 4 36 -9 87 -16
139 -18 24 -1 43 -5 43 -9 0 -15 72 -27 91 -15 34 21 22 35 -28 32 -26 -1 -83
9 -127 22 -45 12 -107 30 -138 39 -72 21 -77 36 -6 18 29 -8 62 -14 75 -14 39
0 13 43 -36 59 -29 9 -39 17 -33 25 14 17 11 48 -5 42 -7 -3 -25 1 -40 9 -32
16 -110 50 -135 58 -10 4 -18 12 -18 20 0 9 19 13 75 12 54 0 75 3 75 12 0 8
13 13 33 14 28 0 29 1 10 9 -14 6 -20 15 -17 27 5 19 -33 43 -70 43 -15 0 -17
3 -9 11 9 9 18 8 38 -5 33 -22 70 -18 70 8 0 14 -15 25 -57 40 -31 12 -60 25
-65 30 -5 5 1 6 12 2 11 -4 42 -10 68 -13 l48 -6 -21 39 c-12 21 -31 49 -41
60 -11 12 -21 31 -22 44 -1 12 -9 26 -18 31 -11 5 -15 16 -12 29 3 11 2 28 -3
37 -6 14 -9 9 -15 -22 -29 -144 -37 -182 -44 -197 -8 -20 -40 -25 -32 -5 3 7
-1 21 -9 32 -8 10 -14 13 -14 6 0 -7 -5 -9 -11 -5 -8 5 -6 10 5 16 13 7 16 29
16 126 1 64 6 153 13 198 10 68 17 87 45 118 17 20 32 39 32 41 0 3 -59 5
-131 5 l-131 0 17 -26 c17 -26 13 -78 -6 -90 -14 -8 -44 21 -74 72 l-26 44
-102 -1 c-100 0 -102 -1 -124 -29z m217 -15 c0 -8 -9 -15 -20 -15 -11 0 -20 7
-20 15 0 8 9 15 20 15 11 0 20 -7 20 -15z m11 -83 c30 -25 50 -95 42 -151 -6
-38 -8 -42 -13 -21 -3 14 -12 25 -20 26 -40 3 -41 4 -30 24 13 24 4 44 -16 36
-17 -7 -17 -1 -3 26 10 18 8 25 -12 41 -19 15 -20 20 -8 28 21 13 34 11 60 -9z
m-83 -22 c1 -9 -4 -24 -11 -34 -14 -19 -15 -19 -31 7 -10 14 -15 31 -11 37 10
16 49 8 53 -10z m209 -82 c-3 -8 -6 -5 -6 6 -1 11 2 17 5 13 3 -3 4 -12 1 -19z
m91 -70 c3 -83 3 -86 -17 -81 -14 4 -21 14 -22 32 0 14 -3 38 -5 54 -3 15 0
35 5 45 7 13 6 23 -2 31 -9 10 -7 12 13 9 24 -3 25 -6 28 -90z m-104 21 c8
-44 8 -63 -4 -95 -7 -18 -14 -24 -21 -17 -11 11 -22 119 -14 134 13 19 33 8
39 -22z m-120 -26 c5 -11 2 -14 -10 -9 -8 3 -20 6 -25 6 -18 0 -9 16 10 17 11
1 22 -5 25 -14z m311 -282 c7 -12 -12 -24 -25 -16 -11 7 -4 25 10 25 5 0 11
-4 15 -9z m75 -334 c0 -5 -8 -6 -17 -2 -10 4 -29 10 -41 13 -16 3 -20 7 -12
12 14 9 70 -10 70 -23z m-194 -72 c7 -27 13 -66 14 -85 l0 -35 -35 38 c-29 31
-35 46 -35 81 0 23 3 46 7 50 17 17 37 -3 49 -49z m254 -5 c0 -5 -7 -7 -15 -4
-8 4 -15 8 -15 10 0 2 7 4 15 4 8 0 15 -4 15 -10z m-226 -135 c3 -8 1 -15 -4
-15 -6 0 -10 7 -10 15 0 8 2 15 4 15 2 0 6 -7 10 -15z"/>
<path d="M1031 6384 c0 -11 3 -14 6 -6 3 7 2 16 -1 19 -3 4 -6 -2 -5 -13z"/>
<path d="M1760 6345 c0 -8 4 -15 8 -15 4 0 18 -20 30 -45 17 -36 27 -45 47
-45 27 0 34 17 11 26 -7 3 -22 22 -32 42 -11 20 -23 40 -29 44 -17 13 -35 9
-35 -7z"/>
<path d="M640 6280 c0 -5 3 -9 8 -9 34 6 42 -2 42 -41 0 -22 -4 -40 -10 -40
-6 0 -10 -33 -10 -80 0 -64 -3 -80 -15 -80 -12 0 -15 -16 -15 -80 0 -47 4 -80
10 -80 6 0 10 -16 10 -35 0 -19 9 -58 20 -87 13 -34 20 -77 20 -122 0 -64 16
-145 31 -156 11 -9 39 -68 39 -85 0 -8 4 -23 9 -33 5 -9 13 -26 17 -37 13 -37
22 50 13 138 -4 45 -8 120 -8 166 -1 47 -5 110 -11 140 -11 63 -33 337 -34
423 -1 33 -5 57 -11 55 -5 -1 -10 -12 -10 -24 1 -13 -3 -23 -7 -23 -4 0 -8 16
-8 36 0 19 -6 42 -14 50 -17 16 -66 19 -66 4z m80 -210 c0 -29 -4 -40 -15 -40
-11 0 -15 11 -15 40 0 29 4 40 15 40 11 0 15 -11 15 -40z"/>
<path d="M590 6230 c0 -22 5 -40 10 -40 6 0 10 18 10 40 0 22 -4 40 -10 40 -5
0 -10 -18 -10 -40z"/>
<path d="M2935 6161 c-3 -16 -12 -72 -20 -123 -7 -51 -28 -187 -45 -303 -17
-115 -47 -311 -65 -435 -35 -231 -35 -250 5 -250 9 0 41 -10 70 -22 47 -20 54
-20 64 -6 7 9 24 87 39 174 16 88 37 209 48 269 10 61 28 166 39 235 18 111
42 244 56 308 6 30 36 29 91 -4 25 -14 46 -24 47 -22 15 18 35 73 29 78 -5 4
-35 17 -68 30 -33 13 -73 29 -90 35 -61 26 -171 65 -182 65 -6 0 -14 -13 -18
-29z"/>
<path d="M2197 6133 c-19 -18 -3 -25 41 -19 32 4 42 3 32 -4 -13 -8 -13 -10 2
-10 26 0 31 18 9 29 -22 12 -74 15 -84 4z"/>
<path d="M1900 6125 c0 -19 29 -32 62 -27 25 3 38 1 38 -7 0 -6 9 -11 20 -11
13 0 17 5 14 14 -6 15 -12 16 -71 18 -18 1 -30 5 -27 9 3 5 -4 9 -15 9 -12 0
-21 -2 -21 -5z"/>
<path d="M401 6076 c-1 -26 2 -37 9 -30 6 6 6 21 1 39 -9 30 -9 30 -10 -9z"/>
<path d="M1895 6050 c5 -21 2 -39 -9 -56 -17 -24 -16 -25 29 -44 25 -11 48
-26 51 -35 15 -38 61 1 64 55 3 52 1 60 -13 60 -8 0 -36 11 -63 25 -63 32 -67
31 -59 -5z m45 -51 c0 -38 -24 -35 -27 4 -1 18 3 27 13 27 9 0 14 -11 14 -31z
m50 -29 c-6 -12 -14 -19 -17 -16 -4 3 0 18 8 32 7 14 15 21 17 15 2 -5 -2 -20
-8 -31z"/>
<path d="M411 6005 c0 -11 7 -47 14 -80 l14 -60 -5 70 c-4 39 -10 74 -15 80
-5 5 -9 1 -8 -10z"/>
<path d="M438 5835 c2 -14 6 -25 8 -25 2 0 4 11 4 25 0 14 -4 25 -9 25 -4 0
-6 -11 -3 -25z"/>
<path d="M3396 5793 c-3 -10 -26 -120 -51 -245 -26 -125 -50 -241 -55 -258 -7
-26 -5 -33 18 -51 26 -20 27 -20 30 -2 2 10 6 25 9 33 4 8 8 22 9 30 1 8 10
49 19 90 9 41 23 104 31 140 30 144 38 175 48 182 20 14 53 8 76 -12 20 -17
22 -26 17 -67 -7 -52 -12 -83 -22 -123 -16 -66 15 14 35 90 25 93 30 148 15
152 -5 1 -44 14 -85 30 -89 33 -87 33 -94 11z"/>
<path d="M2000 5791 c0 -6 7 -11 15 -11 8 0 15 -7 15 -15 0 -17 37 -35 56 -28
12 4 40 -25 31 -33 -3 -3 -43 3 -88 15 -59 14 -85 17 -90 9 -14 -22 4 -38 62
-54 33 -9 62 -21 65 -25 7 -12 -17 -11 -54 2 -17 6 -43 9 -59 7 l-28 -3 26
-26 c16 -17 42 -29 70 -34 24 -4 58 -15 74 -23 26 -14 27 -17 10 -20 -11 -1
-49 6 -84 18 -35 11 -66 18 -69 15 -8 -8 19 -35 35 -35 8 0 12 -4 9 -8 -2 -4
15 -14 40 -21 35 -11 47 -11 59 -1 9 7 18 10 22 6 3 -3 1 -6 -5 -6 -6 0 -9 -6
-6 -14 8 -20 -27 -25 -80 -13 -40 9 -49 8 -63 -6 -9 -9 -14 -19 -12 -22 3 -3
36 -12 72 -21 64 -16 68 -16 87 1 12 11 20 31 20 51 0 18 7 40 16 48 8 9 11
16 5 16 -21 0 -11 20 14 26 24 6 34 29 16 36 -13 4 10 88 24 88 5 0 3 5 -5 11
-11 8 -12 12 -2 16 25 10 11 22 -35 28 -44 6 -102 19 -145 31 -10 3 -18 1 -18
-5z m163 -61 c3 -13 0 -20 -9 -20 -8 0 -14 2 -14 4 0 2 -3 11 -6 20 -4 10 -1
16 9 16 8 0 17 -9 20 -20z m3 -65 c4 -14 -24 -50 -32 -42 -4 4 -1 13 6 22 8
10 9 15 1 15 -6 0 -11 5 -11 11 0 13 32 8 36 -6z"/>
<path d="M451 5780 c0 -8 4 -22 9 -30 12 -18 12 -2 0 25 -6 13 -9 15 -9 5z"/>
<path d="M1792 5698 c3 -7 15 -14 29 -16 24 -4 24 -3 4 12 -24 19 -38 20 -33
4z"/>
<path d="M1875 5670 c3 -5 16 -10 28 -9 21 0 21 1 2 9 -28 12 -37 12 -30 0z"/>
<path d="M481 5614 c0 -11 3 -14 6 -6 3 7 2 16 -1 19 -3 4 -6 -2 -5 -13z"/>
<path d="M512 5490 c0 -14 2 -19 5 -12 2 6 2 18 0 25 -3 6 -5 1 -5 -13z"/>
<path d="M3510 5455 c0 -8 2 -15 4 -15 2 0 6 7 10 15 3 8 1 15 -4 15 -6 0 -10
-7 -10 -15z"/>
<path d="M350 5403 c0 -4 5 -15 10 -23 8 -13 10 -13 10 2 0 9 -4 20 -10 23 -5
3 -10 3 -10 -2z"/>
<path d="M530 5395 c0 -8 4 -15 10 -15 5 0 7 7 4 15 -4 8 -8 15 -10 15 -2 0
-4 -7 -4 -15z"/>
<path d="M3500 5395 c-7 -9 -11 -18 -8 -20 3 -3 11 1 18 10 7 9 11 18 8 20 -3
3 -11 -1 -18 -10z"/>
<path d="M1920 5370 c0 -5 5 -10 11 -10 8 0 8 -4 0 -13 -8 -10 -7 -17 2 -26 6
-7 12 -27 13 -44 2 -129 3 -133 29 -145 29 -13 31 -10 9 12 -14 15 -14 16 0
16 16 0 19 15 20 125 1 28 4 55 8 62 5 7 -3 15 -24 22 -39 14 -68 14 -68 1z"/>
<path d="M537 5350 c3 -11 9 -20 13 -20 5 0 6 9 3 20 -3 11 -9 20 -13 20 -5 0
-6 -9 -3 -20z"/>
<path d="M3487 5354 c-4 -4 -7 -14 -7 -23 0 -11 3 -12 11 -4 6 6 10 16 7 23
-2 6 -7 8 -11 4z"/>
<path d="M551 5305 c-1 -31 19 -95 30 -95 6 0 7 5 2 13 -4 6 -13 32 -19 57 -7
25 -12 36 -13 25z"/>
<path d="M3478 5305 c-6 -10 -27 -109 -34 -160 -4 -29 -4 -29 10 5 8 19 15 48
15 63 1 16 6 37 12 48 11 21 8 62 -3 44z"/>
<path d="M3064 5279 c-7 -8 -15 -52 -19 -98 -5 -67 -4 -82 7 -79 7 3 13 12 13
21 0 26 13 30 20 7 5 -16 10 -18 19 -11 10 8 20 5 38 -11 13 -13 39 -34 57
-48 28 -21 32 -29 28 -56 -8 -45 5 -61 38 -46 18 8 32 9 45 2 10 -5 46 -10 80
-10 66 0 84 15 62 51 -7 10 -12 28 -12 38 0 11 -5 31 -12 45 -10 24 -14 25
-65 19 -50 -5 -56 -4 -83 22 -22 21 -30 38 -30 62 l0 34 -51 -6 c-50 -6 -51
-5 -88 36 -29 34 -39 39 -47 28z"/>
<path d="M581 5184 c0 -11 3 -14 6 -6 3 7 2 16 -1 19 -3 4 -6 -2 -5 -13z"/>
<path d="M4269 5136 c-31 -12 -71 -32 -90 -43 -26 -16 -59 -22 -139 -27 -136
-9 -182 -14 -315 -32 -77 -11 -110 -13 -113 -5 -5 16 -48 13 -62 -4 -15 -18
-7 -43 17 -51 43 -14 80 -38 89 -58 7 -16 21 -22 61 -26 28 -3 55 -8 58 -12 7
-7 -51 -38 -72 -38 -15 0 -43 -23 -43 -35 0 -4 7 -4 16 -1 12 5 14 1 9 -15 -4
-13 -2 -25 5 -29 9 -5 9 -9 1 -14 -6 -4 -11 -2 -11 3 0 6 -5 11 -11 11 -6 0
-8 -8 -4 -19 4 -13 -2 -25 -17 -38 -36 -29 -189 -200 -254 -284 -132 -170
-179 -228 -189 -228 -5 -1 -18 -15 -27 -31 -20 -35 -46 -49 -58 -30 -4 7 -14
10 -22 7 -11 -4 -20 13 -36 66 -26 92 -46 211 -44 262 2 36 -1 41 -33 56 -20
9 -39 12 -47 8 -7 -5 -22 -9 -34 -9 -13 0 -27 -13 -41 -37 -17 -31 -20 -52
-17 -113 7 -137 9 -148 27 -167 12 -15 15 -26 9 -42 -7 -20 -9 -21 -21 -7 -18
21 -51 20 -78 -3 -23 -19 -31 -41 -15 -41 4 0 9 -29 10 -65 3 -53 0 -65 -12
-65 -23 0 -29 -17 -21 -66 6 -39 9 -44 33 -44 50 -1 62 -20 63 -101 1 -60 7
-86 31 -136 16 -34 28 -68 25 -75 -2 -7 0 -24 6 -38 5 -14 9 -43 9 -65 0 -22
2 -34 5 -27 2 6 12 12 20 12 11 0 14 -6 10 -21 -7 -28 14 -49 57 -56 28 -4 35
-2 38 13 3 16 7 13 21 -14 15 -27 18 -61 17 -223 0 -170 3 -195 20 -233 14
-29 32 -48 56 -59 39 -19 68 -22 59 -7 -3 6 -2 10 2 10 16 0 63 -25 63 -33 0
-4 19 -17 43 -27 47 -22 113 -26 119 -9 5 14 78 -6 78 -21 0 -4 17 -16 38 -25
20 -10 64 -30 97 -46 76 -37 95 -37 54 0 l-32 30 24 5 c13 3 50 8 82 11 31 4
63 13 71 20 7 7 31 17 52 21 21 4 48 17 60 29 15 16 29 21 47 18 34 -7 92 20
132 61 17 17 39 38 50 47 34 27 75 82 76 103 1 12 2 28 3 36 1 8 6 24 12 35 6
11 10 40 8 65 -5 80 16 167 48 197 l28 27 40 -43 c22 -23 40 -50 40 -59 0 -8
14 -44 31 -79 30 -62 32 -63 70 -63 l40 0 -2 54 c-2 66 -4 68 -54 91 -40 18
-165 140 -165 161 0 18 30 86 46 101 18 19 18 54 -1 79 -8 10 -15 24 -15 31 0
7 -12 25 -26 40 -14 15 -30 38 -35 51 -6 15 -17 22 -34 22 -15 0 -25 6 -25 14
0 8 -10 18 -22 21 -13 4 -47 19 -77 33 -48 23 -59 25 -110 16 -31 -5 -99 -7
-151 -3 -52 3 -100 1 -106 -3 -8 -6 -25 4 -48 25 -47 45 -116 55 -159 25 -33
-23 -43 -17 -50 31 -3 18 -15 42 -26 52 -19 18 -23 19 -51 4 -35 -18 -73 -6
-64 20 7 17 24 20 24 5 0 -16 13 -12 43 14 16 14 34 23 41 20 7 -3 24 0 38 5
29 11 127 110 128 129 0 7 9 31 20 53 15 28 21 63 23 116 2 68 0 80 -20 101
-13 14 -23 30 -23 37 0 13 214 218 258 247 22 14 27 14 39 2 19 -18 37 -18 53
1 18 22 30 19 30 -7 0 -13 4 -28 8 -35 11 -18 68 19 93 61 11 19 26 37 34 40
20 7 19 36 -1 36 -9 0 -14 6 -11 13 2 6 10 11 16 10 6 -2 11 6 11 17 0 11 5
20 11 20 5 0 8 4 5 8 -6 10 32 39 93 71 57 29 82 24 168 -33 85 -56 134 -107
250 -261 13 -17 46 -59 73 -95 102 -131 185 -273 230 -390 26 -69 70 -95 125
-74 25 10 46 60 39 91 -4 14 -30 78 -59 142 -54 120 -127 239 -199 326 -23 28
-81 100 -129 162 -208 267 -387 360 -558 289z m-469 -126 c-8 -5 -26 -10 -40
-10 -20 0 -22 2 -10 10 8 5 26 10 40 10 20 0 22 -2 10 -10z m-5 -165 c-16 -13
-34 -24 -40 -24 -5 0 -4 3 3 6 6 2 12 11 12 18 0 12 16 21 45 24 6 0 -3 -10
-20 -24z m305 -99 c0 -3 -4 -8 -10 -11 -5 -3 -10 -1 -10 4 0 6 5 11 10 11 6 0
10 -2 10 -4z m-638 -587 c4 -19 10 -46 13 -60 8 -32 -18 -63 -46 -54 -11 4
-19 2 -19 -4 0 -19 -50 -13 -51 7 0 14 -2 14 -7 2 -4 -8 -15 -16 -24 -16 -20
-2 -19 1 30 71 74 105 92 114 104 54z m-642 -258 c0 -6 -4 -13 -10 -16 -5 -3
-10 1 -10 9 0 9 5 16 10 16 6 0 10 -4 10 -9z m207 -491 c-1 -11 -7 -20 -13
-20 -7 0 -10 8 -7 20 3 11 9 20 14 20 4 0 7 -9 6 -20z"/>
<path d="M393 5110 c0 -25 2 -35 4 -22 2 12 2 32 0 45 -2 12 -4 2 -4 -23z"/>
<path d="M595 5117 c11 -58 43 -174 44 -158 1 17 -39 184 -46 191 -3 3 -2 -12
2 -33z"/>
<path d="M2227 5054 c-3 -3 -34 -7 -69 -8 -72 -3 -123 -22 -108 -41 5 -7 7
-14 4 -18 -3 -3 8 -13 25 -21 24 -13 39 -14 73 -6 24 5 59 12 78 15 32 5 135
74 114 76 -52 6 -113 7 -117 3z"/>
<path d="M0 4942 c0 -88 13 -103 23 -28 4 29 2 56 -8 78 -14 32 -14 31 -15
-50z"/>
<path d="M4287 4923 c17 -6 -2 -43 -22 -43 -16 0 -31 -43 -20 -59 10 -16 25
-13 32 7 4 9 15 26 25 36 25 28 15 67 -17 65 -5 0 -4 -3 2 -6z"/>
<path d="M640 4920 c0 -3 7 -23 15 -45 12 -33 14 -36 15 -14 0 14 -7 34 -15
45 -8 10 -14 17 -15 14z"/>
<path d="M42 4840 c0 -14 2 -19 5 -12 2 6 2 18 0 25 -3 6 -5 1 -5 -13z"/>
<path d="M1280 4818 c0 -36 4 -35 14 5 4 16 2 27 -4 27 -5 0 -10 -14 -10 -32z"/>
<path d="M2260 4833 c-10 -2 -15 -17 -16 -46 0 -23 -4 -70 -8 -105 -7 -60 -6
-62 19 -72 21 -8 25 -15 23 -41 -4 -44 12 -45 53 -6 53 51 69 82 69 130 0 34
-6 51 -27 74 -16 16 -32 37 -38 45 -11 17 -50 28 -75 21z"/>
<path d="M676 4795 c4 -22 11 -47 16 -55 6 -10 7 -1 3 25 -4 22 -11 47 -16 55
-6 10 -7 1 -3 -25z"/>
<path d="M0 4769 c0 -38 24 -35 28 4 2 19 -1 27 -12 27 -11 0 -16 -10 -16 -31z"/>
<path d="M1771 4777 c-15 -7 -25 -22 -26 -36 -1 -14 -8 -27 -15 -29 -7 -3 -21
-13 -31 -23 -11 -11 -19 -14 -19 -8 0 5 -4 8 -8 5 -4 -3 -6 -20 -4 -38 4 -32
5 -33 55 -36 69 -3 117 6 117 22 0 7 11 19 25 26 14 7 25 17 25 21 0 4 13 21
29 38 16 17 25 31 20 31 -5 0 -18 9 -29 20 -23 23 -100 27 -139 7z"/>
<path d="M1080 4737 c0 -44 15 -59 46 -45 28 13 28 15 12 51 -9 17 -21 27 -35
27 -19 0 -23 -5 -23 -33z m40 3 c0 -5 -2 -10 -4 -10 -3 0 -8 5 -11 10 -3 6 -1
10 4 10 6 0 11 -4 11 -10z"/>
<path d="M1200 4746 c0 -8 -7 -17 -16 -20 -24 -9 -5 -28 23 -23 19 3 27 -1 35
-18 10 -23 54 -42 66 -30 8 8 -20 25 -30 19 -4 -2 -12 6 -19 18 -17 33 -59 70
-59 54z"/>
<path d="M3965 4720 c-3 -5 1 -10 9 -10 9 0 16 5 16 10 0 6 -4 10 -9 10 -6 0
-13 -4 -16 -10z"/>
<path d="M702 4710 c0 -8 4 -26 8 -40 6 -20 8 -21 8 -5 0 11 -3 29 -8 40 -5
12 -8 14 -8 5z"/>
<path d="M841 4639 c-20 -32 -19 -82 2 -107 5 -7 31 -22 56 -34 51 -23 110
-68 89 -68 -10 0 -9 -3 2 -10 13 -9 13 -12 -2 -21 -21 -12 -24 -29 -4 -29 7 0
19 -13 26 -30 7 -16 16 -30 20 -30 4 0 13 -13 20 -30 7 -16 16 -30 20 -30 4 0
7 -43 8 -95 l1 -95 -35 -38 c-19 -20 -42 -49 -50 -64 -8 -16 -22 -28 -30 -28
-11 0 -15 -6 -11 -20 3 -11 2 -18 -2 -15 -11 6 -45 -43 -59 -84 -15 -43 -59
-101 -76 -101 -27 0 -34 -59 -13 -100 8 -14 15 -50 16 -80 1 -29 6 -60 13 -67
6 -8 8 -31 5 -56 -3 -23 -2 -55 3 -72 5 -16 16 -59 25 -95 24 -93 23 -93 90
-96 67 -4 90 8 73 36 -16 25 -3 50 26 50 14 0 27 4 30 9 3 4 30 11 60 15 71 8
86 14 86 36 0 14 14 20 78 29 93 15 157 5 157 -23 0 -23 26 -33 96 -36 87 -4
87 -4 94 40 4 22 10 40 15 40 12 0 78 132 85 172 4 21 11 36 15 33 13 -8 23
100 17 176 -3 41 -2 69 4 69 5 0 9 -4 9 -9 0 -5 9 -7 19 -4 13 3 18 10 14 21
-4 9 -2 13 4 9 6 -4 16 0 23 8 7 8 19 15 27 15 7 0 17 8 20 18 4 9 11 20 17
24 6 5 -2 6 -19 4 -16 -2 -23 -1 -15 1 8 3 19 12 23 20 6 9 16 12 30 7 18 -6
20 -4 11 7 -17 20 -29 104 -15 95 6 -4 11 -14 11 -22 0 -8 7 -14 16 -14 10 0
14 -5 10 -16 -3 -8 -2 -12 4 -9 6 3 10 20 10 36 0 18 4 28 10 24 6 -3 10 0 10
9 0 8 4 16 9 18 16 5 34 135 35 240 0 101 -28 121 -99 72 -36 -24 -43 -25
-147 -21 -61 3 -115 10 -121 16 -14 14 -87 14 -87 0 0 -11 -17 -9 -68 6 -19 6
-21 4 -16 -11 3 -11 2 -15 -3 -9 -12 15 -85 36 -76 23 8 -14 -2 -8 -87 51 -36
24 -84 62 -107 83 -48 43 -175 128 -192 128 -6 0 -11 4 -11 9 0 12 -112 51
-149 51 -24 0 -35 -7 -50 -31z m889 -499 c0 -5 -2 -10 -4 -10 -3 0 -8 5 -11
10 -3 6 -1 10 4 10 6 0 11 -4 11 -10z m35 -241 c11 -17 -1 -21 -15 -4 -8 9 -8
15 -2 15 6 0 14 -5 17 -11z"/>
<path d="M4185 4656 c-11 -6 -32 -24 -47 -40 -41 -43 -30 -66 33 -66 40 0 49
11 49 63 0 45 -10 57 -35 43z"/>
<path d="M720 4626 c0 -9 5 -16 10 -16 6 0 10 4 10 9 0 6 -4 13 -10 16 -5 3
-10 -1 -10 -9z"/>
<path d="M3048 4592 c-25 -3 -28 -8 -28 -39 0 -52 51 -90 85 -65 6 4 11 28 13
53 2 42 0 47 -20 50 -13 2 -35 3 -50 1z"/>
<path d="M730 4585 c0 -5 5 -17 10 -25 5 -8 10 -10 10 -5 0 6 -5 17 -10 25 -5
8 -10 11 -10 5z"/>
<path d="M4385 4531 c-38 -9 -74 -17 -80 -16 -5 0 -11 -8 -13 -17 -2 -11 3
-18 12 -18 9 0 16 -4 16 -9 0 -14 284 -5 325 10 52 19 43 29 -25 29 -33 0 -60
4 -60 9 0 5 -8 7 -19 4 -10 -2 -25 3 -34 11 -19 20 -33 19 -122 -3z"/>
<path d="M751 4530 c0 -8 4 -22 9 -30 12 -18 12 -2 0 25 -6 13 -9 15 -9 5z"/>
<path d="M4710 4500 c0 -5 7 -7 15 -4 8 4 15 8 15 10 0 2 -7 4 -15 4 -8 0 -15
-4 -15 -10z"/>
<path d="M821 4314 c0 -11 3 -14 6 -6 3 7 2 16 -1 19 -3 4 -6 -2 -5 -13z"/>
<path d="M841 4234 c0 -11 3 -14 6 -6 3 7 2 16 -1 19 -3 4 -6 -2 -5 -13z"/>
<path d="M850 4198 c0 -9 5 -20 10 -23 6 -3 11 -16 11 -28 1 -16 3 -17 6 -5 2
9 -3 29 -11 45 -10 19 -15 22 -16 11z"/>
<path d="M885 4093 c4 -10 12 -34 17 -53 11 -37 38 -82 38 -63 0 7 -4 15 -10
18 -5 3 -10 13 -10 21 0 9 5 12 12 8 6 -4 9 -3 7 2 -34 67 -45 84 -52 84 -5 0
-6 -8 -2 -17z"/>
<path d="M4842 4016 c17 -16 35 -22 48 -19 11 3 20 0 20 -6 0 -8 12 -10 38 -6
26 4 31 3 17 -4 -19 -8 -19 -9 -1 -16 11 -5 21 -3 25 4 8 13 41 5 41 -10 0 -5
5 -9 11 -9 5 0 7 5 3 11 -4 7 0 9 12 6 11 -4 33 -9 49 -13 17 -4 35 -10 40
-14 6 -4 30 -10 55 -14 102 -14 122 -19 112 -25 -6 -4 8 -6 30 -6 31 0 44 -6
56 -23 19 -29 27 -28 30 6 2 27 0 27 -116 54 -64 15 -194 46 -288 68 -94 22
-180 40 -190 40 -16 -1 -15 -4 8 -24z"/>
<path d="M4680 3202 c1 -21 14 -32 180 -142 165 -109 537 -320 565 -320 4 0 5
7 3 16 -2 8 -58 44 -125 79 -144 75 -214 114 -229 126 -6 5 -33 21 -60 35 -27
14 -94 56 -148 92 -140 94 -186 123 -186 114z"/>
<path d="M685 3110 c-7 -12 22 -12 50 0 17 7 15 9 -12 9 -17 1 -35 -3 -38 -9z"/>
<path d="M693 2933 c-40 -3 -53 -8 -53 -20 0 -12 -3 -13 -14 -4 -8 7 -32 11
-53 9 -42 -3 -43 -1 32 -59 21 -16 50 -46 64 -64 13 -19 28 -32 33 -29 6 4 6
10 0 16 -6 6 -8 17 -5 24 3 8 -1 14 -9 14 -8 0 -37 20 -64 45 -43 39 -46 45
-26 45 12 0 25 -7 28 -15 4 -8 10 -13 14 -10 4 3 10 -2 14 -10 3 -8 15 -15 26
-15 11 0 23 -6 26 -14 5 -12 11 -13 42 -2 20 7 51 11 69 9 17 -3 39 0 50 6 15
9 11 10 -24 11 -23 0 -44 3 -46 8 -3 4 15 5 39 3 46 -3 54 7 27 36 -13 15 -94
22 -170 16z m77 -52 c0 -9 -24 -21 -41 -21 -16 0 -10 18 9 23 28 8 32 7 32 -2z"/>
<path d="M305 2913 c-26 -25 -35 -59 -35 -127 0 -45 -4 -67 -15 -76 -22 -18
-16 -89 8 -104 14 -9 21 -8 30 4 7 9 27 22 45 29 30 12 34 12 47 -5 8 -11 15
-22 15 -25 1 -25 -98 -49 -111 -27 -6 9 -9 7 -9 -8 0 -17 7 -21 42 -22 30 -2
48 -9 63 -25 15 -17 32 -22 70 -24 41 -1 65 -10 126 -46 73 -45 77 -46 157
-45 58 0 82 4 79 12 -2 6 -12 10 -22 8 -9 -2 -23 5 -31 16 -14 20 -80 43 -124
43 -30 1 -130 31 -130 39 0 3 18 25 40 48 22 22 40 43 40 46 0 2 13 17 29 33
35 36 71 29 71 -12 0 -16 6 -25 16 -25 11 0 15 -6 11 -19 -3 -15 0 -17 16 -13
17 4 19 1 15 -16 -4 -13 -2 -20 4 -16 5 4 27 -13 47 -36 34 -39 39 -41 59 -29
12 8 22 18 22 23 0 4 -7 3 -15 -4 -12 -10 -19 -10 -27 -2 -8 8 -7 13 5 18 9 3
17 10 17 15 0 5 -9 4 -20 -3 -24 -16 -41 -1 -17 16 9 7 17 17 17 22 0 15 -38
34 -55 28 -10 -4 -15 0 -15 10 0 9 5 16 10 16 6 0 10 5 10 11 0 8 -4 8 -15 -1
-8 -6 -19 -9 -25 -5 -17 11 -11 25 11 25 11 0 17 5 14 10 -3 6 -16 8 -29 4
-18 -4 -31 5 -66 45 -48 56 -60 62 -60 31 0 -11 5 -20 10 -20 6 0 10 -7 10
-15 0 -8 -7 -15 -15 -15 -9 0 -12 6 -9 15 7 18 -11 19 -55 4 -27 -10 -35 -9
-49 5 -15 15 -15 16 1 16 10 0 17 8 17 20 0 11 4 20 10 20 5 0 14 9 21 21 9
18 7 23 -13 37 -12 9 -26 16 -31 14 -4 -1 -6 4 -5 10 2 7 -7 14 -19 16 -15 2
-23 10 -23 24 0 17 -2 18 -15 8 -12 -10 -15 -10 -15 4 0 19 -16 21 -23 4 -4
-10 -6 -10 -6 0 -1 19 -86 16 -106 -5z m133 -108 c4 -86 12 -102 65 -116 23
-6 45 -16 49 -23 6 -8 8 -8 8 2 0 6 6 12 13 12 6 0 -5 -16 -27 -35 -34 -31
-43 -35 -75 -29 -44 8 -40 4 -42 45 -2 18 -11 43 -21 55 -10 12 -21 44 -25 73
-5 41 -2 55 12 71 29 32 40 18 43 -55z m-100 -43 l-11 -27 -9 34 c-5 19 -6 46
-3 60 l7 26 13 -33 c11 -25 12 -39 3 -60z m-41 41 c-3 -10 -5 -4 -5 12 0 17 2
24 5 18 2 -7 2 -21 0 -30z m117 -235 c-5 -7 2 -9 19 -4 27 6 58 -14 56 -37 0
-9 -2 -8 -6 1 -3 7 -23 12 -50 12 -37 0 -44 3 -39 16 3 9 6 20 6 25 0 6 5 7
10 4 6 -4 7 -11 4 -17z m406 12 c0 -5 -7 -10 -15 -10 -8 0 -15 5 -15 10 0 6 7
10 15 10 8 0 15 -4 15 -10z"/>
<path d="M570 2798 c0 -7 7 -21 14 -31 12 -16 14 -16 20 -1 8 22 8 22 -14 34
-15 8 -20 8 -20 -2z"/>
<path d="M4256 2791 c-15 -6 -16 -10 -7 -16 23 -14 -9 -25 -75 -25 -71 0 -83
-8 -52 -32 23 -17 21 -18 -59 -18 -45 0 -94 -5 -108 -12 -25 -11 -23 -13 51
-35 43 -13 88 -23 99 -23 26 0 52 -28 52 -55 0 -26 -35 -65 -59 -65 -10 0 -18
-4 -18 -10 0 -5 5 -10 10 -10 6 0 10 -7 10 -15 0 -9 6 -18 14 -21 17 -6 96 32
96 46 0 6 6 10 14 10 19 0 59 57 53 74 -3 8 5 18 20 25 14 6 23 17 20 24 -3 8
8 19 25 26 56 25 21 58 -64 60 -56 1 -46 21 11 21 46 0 48 1 44 24 -6 31 -39
42 -77 27z m-66 -145 c0 -9 -40 -13 -46 -5 -3 5 6 9 20 9 14 0 26 -2 26 -4z"/>
<path d="M757 2754 c-8 -8 1 -24 14 -24 5 0 9 7 9 15 0 15 -12 20 -23 9z"/>
<path d="M710 2735 c6 -8 9 -19 5 -25 -3 -5 2 -10 13 -10 18 0 19 3 9 25 -7
14 -18 25 -26 25 -11 0 -11 -3 -1 -15z"/>
<path d="M580 2574 c-33 -18 -11 -18 31 1 22 9 27 14 14 14 -11 -1 -31 -7 -45
-15z"/>
<path d="M910 2500 c0 -5 -8 -10 -17 -11 -10 0 -5 -5 11 -9 47 -14 100 -8 104
13 3 14 -4 17 -47 17 -28 0 -51 -4 -51 -10z"/>
<path d="M4073 2418 c2 -7 14 -13 27 -13 13 0 25 6 28 13 2 8 -7 12 -28 12
-21 0 -30 -4 -27 -12z"/>
<path d="M883 2403 c2 -10 8 -28 15 -40 16 -28 15 -33 -3 -33 -8 0 -15 -4 -15
-9 0 -5 9 -7 20 -4 21 6 28 -13 8 -20 -7 -2 -5 -3 4 -2 24 4 33 -12 11 -18
-14 -4 -13 -5 5 -6 12 0 22 -5 22 -11 0 -5 7 -10 15 -10 19 0 19 24 1 42 -7 8
-17 25 -21 38 -10 32 -66 98 -62 73z"/>
<path d="M1312 2378 c-29 -29 -3 -105 31 -92 24 9 28 81 4 96 -16 10 -21 10
-35 -4z"/>
<path d="M387 2343 c-19 -19 -5 -43 32 -54 44 -13 87 -5 61 11 -8 6 -25 10
-37 10 -12 0 -28 9 -36 20 -8 11 -17 17 -20 13z"/>
<path d="M542 2332 c-12 -8 -22 -20 -22 -27 0 -15 27 -28 41 -19 5 3 9 1 9 -4
0 -16 -51 -32 -105 -32 -30 0 -57 -4 -60 -10 -7 -11 9 -14 78 -10 37 1 52 -2
62 -17 9 -10 14 -13 15 -5 0 13 30 17 30 4 0 -5 9 -19 19 -31 16 -18 23 -20
40 -12 11 6 31 11 45 11 16 0 26 6 26 15 0 9 -6 12 -15 9 -11 -5 -15 1 -15 24
0 35 -27 64 -40 42 -4 -7 -15 -10 -24 -7 -13 5 -16 16 -12 46 4 38 3 40 -22
39 -15 -1 -38 -8 -50 -16z"/>
<path d="M373 2250 c-9 -13 -9 -21 -2 -26 13 -7 15 -5 23 24 9 27 -5 29 -21 2z"/>
<path d="M1306 2245 c-3 -11 -6 -32 -6 -47 0 -15 -4 -30 -10 -33 -5 -3 -10
-24 -10 -46 0 -26 -5 -42 -15 -45 -18 -7 -20 -44 -3 -44 6 0 3 -9 -7 -20 -24
-27 -53 -25 -66 4 -11 24 -47 46 -74 46 -23 0 -25 -32 -7 -93 14 -42 27 -64
50 -80 17 -12 32 -26 32 -32 0 -5 28 -40 63 -76 34 -37 76 -82 94 -100 44 -47
111 -101 153 -122 19 -10 53 -27 75 -39 22 -12 65 -25 95 -29 87 -11 122 -23
231 -78 55 -28 106 -51 112 -51 18 0 127 -54 131 -66 10 -26 -9 -117 -26 -125
-10 -5 -26 -13 -35 -18 -24 -11 -28 -37 -9 -56 8 -9 13 -22 10 -30 -4 -9 3
-15 21 -17 33 -4 37 -22 5 -26 -14 -2 -29 -10 -33 -18 -4 -8 -21 -14 -37 -14
-16 0 -35 -7 -44 -15 -8 -8 -23 -15 -34 -15 -10 0 -22 -3 -25 -6 -4 -4 -46 -7
-94 -7 -49 0 -69 -2 -45 -4 52 -5 56 -28 6 -38 -20 -3 -38 -4 -41 -1 -3 3 -13
-3 -22 -13 -10 -11 -56 -27 -116 -40 -55 -13 -109 -27 -120 -32 -11 -5 -42
-11 -70 -14 -27 -3 -51 -10 -53 -15 -2 -6 -16 -10 -30 -10 -15 0 -40 -7 -56
-15 -33 -17 -96 -20 -96 -4 0 6 -17 9 -42 7 -28 -2 -42 -7 -41 -15 3 -13 -41
-29 -64 -25 -7 2 -13 -3 -13 -11 0 -9 -15 -17 -40 -21 -22 -3 -40 -11 -40 -16
0 -6 -9 -10 -20 -10 -12 0 -33 -6 -48 -14 -15 -7 -43 -16 -62 -19 -19 -3 -73
-13 -120 -21 -132 -23 -383 -46 -515 -46 -66 0 -137 -3 -158 -6 l-37 -7 0
-278 0 -279 1554 0 1553 0 -14 48 c-8 26 -23 66 -34 90 -10 23 -19 59 -18 80
l0 37 14 -30 c62 -136 77 -171 82 -196 l6 -29 104 1 c81 0 102 3 94 13 -11 12
24 29 94 46 17 4 39 11 50 16 20 7 20 7 1 -14 -10 -12 -35 -25 -55 -28 -20 -4
-45 -13 -56 -20 -17 -12 7 -14 168 -14 l187 0 -18 37 c-11 21 -22 50 -26 65
-5 21 -13 28 -39 30 -28 4 -29 5 -12 13 33 14 35 27 9 77 -25 49 -29 68 -16
68 9 0 86 -152 101 -202 7 -20 19 -42 27 -48 7 -7 14 -19 14 -26 0 -12 112
-14 700 -14 385 0 700 3 700 6 0 5 -49 74 -60 84 -3 3 -28 34 -55 70 -28 36
-57 72 -65 80 -8 8 -37 44 -65 80 -47 62 -85 107 -112 136 -7 7 -13 15 -13 19
0 5 -45 57 -92 107 -21 21 -34 68 -20 68 5 0 15 -7 22 -15 7 -8 19 -15 26 -15
8 0 14 -6 14 -13 0 -8 11 -24 25 -37 14 -13 25 -27 25 -32 0 -4 8 -16 18 -26
36 -38 78 -88 93 -112 9 -14 37 -46 62 -72 24 -26 47 -54 50 -62 3 -8 27 -42
54 -75 26 -34 58 -76 70 -92 12 -17 34 -46 49 -65 l28 -34 103 0 103 0 0 375
0 375 -34 0 c-34 0 -35 -1 -39 -43 l-4 -42 -1 42 c-2 32 3 47 20 63 18 16 20
22 9 33 -11 9 -14 9 -18 0 -7 -19 -83 -17 -83 2 0 11 -11 15 -40 15 -29 0 -40
-4 -40 -15 0 -18 -12 -19 -28 -3 -18 18 -15 28 8 28 13 0 20 7 20 20 0 17 -7
20 -40 20 -35 0 -40 -3 -40 -22 0 -20 -4 -18 -40 17 -22 21 -40 46 -40 55 0
11 -15 22 -40 30 -42 14 -49 27 -27 49 10 11 10 13 0 7 -8 -4 -13 -1 -13 7 0
8 18 22 40 31 22 9 40 19 39 23 -4 26 4 42 24 47 17 4 27 20 41 61 17 48 23
55 46 55 22 0 30 8 48 48 11 26 23 59 26 74 3 15 15 30 26 33 11 3 20 13 20
21 0 8 9 24 20 36 15 16 17 25 9 35 -19 22 -30 16 -94 -50 -34 -34 -78 -74
-98 -89 -19 -16 -43 -45 -52 -65 -10 -21 -32 -52 -49 -69 -51 -51 -96 -108
-96 -121 0 -7 -7 -13 -16 -13 -9 0 -29 -11 -46 -25 -41 -34 -68 -33 -33 1 17
17 19 33 6 52 -6 10 -13 11 -34 1 -15 -7 -27 -16 -27 -21 0 -4 -9 -8 -20 -8
-11 0 -20 -6 -20 -14 0 -9 -7 -12 -20 -9 -11 3 -20 10 -20 15 0 6 -11 8 -24 6
-17 -3 -23 -1 -19 8 4 10 0 11 -20 1 -24 -11 -24 -12 -8 -47 9 -19 19 -36 24
-38 4 -2 7 -19 7 -39 0 -29 -9 -43 -52 -84 -29 -27 -55 -49 -58 -49 -14 0 -90
82 -90 97 0 23 -68 111 -91 118 -11 4 -26 1 -34 -5 -8 -7 -21 -10 -30 -7 -16
7 -32 -12 -19 -22 12 -8 114 -144 149 -199 15 -23 25 -46 21 -50 -4 -4 -13 0
-19 9 -12 15 -71 89 -92 113 -5 7 -14 19 -20 27 -59 92 -68 100 -110 94 -21
-3 -40 -7 -42 -8 -1 -2 41 -47 93 -101 51 -54 94 -103 94 -109 0 -6 10 -21 22
-34 12 -13 19 -26 15 -29 -3 -4 -49 38 -102 92 -52 55 -92 90 -88 79 8 -24 54
-97 67 -106 5 -4 5 -12 2 -18 -12 -20 -87 61 -123 134 -20 39 -39 72 -44 73
-5 2 -9 9 -9 15 0 7 -10 23 -21 37 l-21 25 7 -29 6 -29 -36 31 c-20 18 -41 32
-48 32 -6 0 -21 11 -32 24 -22 25 -137 99 -173 110 -12 4 -22 12 -22 17 0 5
-6 9 -14 9 -7 0 -19 6 -25 14 -14 17 -49 27 -56 16 -3 -5 1 -14 8 -22 21 -22
68 -118 57 -118 -5 0 -10 6 -10 13 0 35 -133 195 -165 198 -33 3 -90 -4 -93
-12 -2 -5 -13 -9 -25 -9 -21 0 -21 1 3 20 14 11 33 20 43 20 28 0 19 18 -14
25 -17 4 -33 13 -36 21 -9 23 -73 47 -90 33 -7 -7 -17 -9 -20 -5 -4 4 -2 11 5
15 9 5 7 12 -9 27 -12 10 -24 19 -28 18 -15 -1 -61 21 -61 31 0 5 -8 -4 -16
-22 -15 -30 -15 -34 6 -77 22 -43 86 -96 116 -96 7 0 18 -8 23 -19 6 -10 43
-40 83 -67 40 -27 75 -51 78 -55 3 -3 37 -31 77 -62 39 -32 82 -72 96 -90 64
-83 87 -101 130 -98 18 1 18 3 -2 37 -27 44 -27 63 -1 39 11 -10 20 -23 20
-30 0 -7 9 -20 20 -30 20 -18 22 -18 78 7 75 33 132 51 140 44 10 -11 -11 -22
-63 -36 -27 -7 -71 -23 -97 -35 -27 -13 -57 -20 -72 -18 -45 9 -30 -42 31
-105 7 -7 13 -18 13 -23 0 -5 6 -9 13 -9 12 0 47 -68 47 -94 0 -7 9 -21 19
-30 21 -19 66 -107 74 -143 3 -15 0 -23 -9 -23 -8 0 -14 7 -14 15 0 8 -4 15
-9 15 -5 0 -12 8 -15 18 -12 32 -36 67 -45 65 -6 -2 -10 14 -11 35 -1 62 -3
70 -15 66 -6 -3 -19 13 -28 34 -9 21 -40 62 -67 90 -49 50 -70 63 -70 42 0 -5
5 -10 10 -10 6 0 10 -4 10 -10 0 -5 20 -31 45 -57 27 -29 45 -58 45 -72 0 -21
-4 -19 -45 25 -25 26 -45 53 -45 60 0 14 -69 59 -86 56 -6 -1 -19 18 -28 43
-10 25 -21 45 -26 45 -5 0 -25 16 -46 35 -42 40 -49 43 -34 16 14 -26 13 -31
-5 -25 -8 4 -15 17 -15 30 0 15 -6 24 -15 24 -8 0 -15 8 -15 18 0 33 -195 219
-239 228 -31 6 -91 -11 -91 -27 0 -16 19 -19 27 -4 15 26 48 -78 33 -105 -6
-11 -15 -18 -21 -15 -12 8 -12 35 1 35 14 0 12 13 -4 36 -14 19 -15 19 -34 -1
-19 -21 -19 -21 13 -58 18 -20 38 -37 44 -37 7 0 10 -4 7 -8 -6 -10 21 -52 34
-52 4 0 7 14 6 30 -1 19 3 30 11 30 9 0 13 -14 13 -43 0 -31 6 -49 20 -62 11
-10 20 -23 20 -29 0 -6 14 -26 30 -45 17 -18 30 -39 30 -46 0 -20 42 -68 49
-56 4 6 12 7 21 1 12 -8 12 -10 -3 -16 -24 -9 -23 -61 2 -69 20 -6 33 -36 22
-52 -20 -32 -61 -12 -61 29 0 13 -9 34 -20 48 -15 20 -21 23 -31 12 -7 -6 -29
-12 -49 -12 -20 0 -40 -4 -46 -9 -12 -13 -173 -53 -183 -46 -5 2 -16 -6 -24
-19 -11 -16 -29 -25 -58 -29 -68 -9 -75 -22 -49 -103 12 -38 26 -77 31 -87 7
-12 5 -17 -6 -17 -9 0 -18 8 -21 18 -7 21 -17 46 -38 94 -9 20 -16 42 -16 50
0 8 -8 14 -17 13 -40 -4 -99 -18 -108 -25 -5 -4 -26 -10 -45 -14 -19 -3 -71
-14 -115 -25 -44 -10 -100 -22 -125 -26 -68 -10 -101 -25 -111 -53 -9 -23 -11
-24 -27 -8 -17 15 -25 14 -107 -4 -49 -10 -91 -17 -94 -15 -6 7 47 26 124 45
l70 17 -2 34 c0 19 -4 57 -8 84 -11 75 11 45 27 -37 l12 -67 31 6 c16 3 48 11
70 18 22 7 65 18 95 26 30 7 59 16 65 21 5 4 16 8 25 8 8 0 28 7 43 15 15 8
58 22 95 31 101 25 104 29 76 89 -26 52 -25 96 0 59 8 -10 20 -39 27 -64 7
-25 15 -48 18 -52 9 -10 84 13 93 28 5 8 22 10 45 7 29 -4 46 1 74 19 19 14
57 28 84 31 26 4 53 11 59 16 6 5 27 11 46 13 47 4 52 32 11 56 -17 9 -31 22
-31 29 0 7 -16 29 -35 50 -62 68 -75 84 -75 93 0 5 -11 17 -25 28 -14 11 -25
25 -25 31 0 6 -4 11 -9 11 -4 0 -20 11 -35 25 l-26 24 0 -32 c0 -18 9 -49 20
-70 24 -45 26 -69 4 -60 -8 3 -13 12 -10 19 3 7 1 16 -3 19 -16 9 -92 168 -87
181 7 19 -31 22 -89 7 -59 -15 -108 -17 -85 -4 8 5 41 14 73 21 50 10 57 14
57 36 0 13 -4 24 -10 24 -5 0 -10 11 -10 24 0 13 -3 26 -7 28 -11 4 -53 65
-53 77 0 5 -7 12 -16 15 -24 9 -14 52 11 48 11 -2 34 -6 51 -9 36 -6 46 4 38
35 -4 13 -11 19 -20 15 -8 -3 -20 -1 -27 5 -7 6 -46 18 -87 27 -41 9 -92 25
-113 36 -22 10 -58 19 -80 19 -23 1 -60 7 -82 15 -34 12 -41 12 -48 0 -4 -8
-16 -15 -26 -15 -10 0 -24 -6 -31 -14 -14 -18 -32 -12 -92 31 -52 38 -53 46
-7 108 16 22 34 52 40 68 6 15 14 27 18 27 4 0 28 20 54 45 25 25 60 52 79 60
57 24 98 69 98 109 0 26 -5 36 -20 41 -23 7 -60 -2 -60 -16 0 -5 -6 -9 -14 -9
-7 0 -26 -12 -43 -27 -40 -37 -88 -62 -147 -78 -41 -11 -54 -10 -82 1 -19 8
-34 21 -34 29 0 9 -9 15 -22 15 -30 1 -103 34 -146 67 -20 15 -49 26 -69 27
-18 1 -37 6 -41 12 -10 15 -47 34 -68 34 -31 0 -134 54 -140 74 -5 15 -13 17
-40 13 -19 -3 -34 -2 -34 4 0 5 -8 9 -19 9 -10 0 -24 7 -31 15 -8 10 -31 15
-66 15 -29 0 -58 6 -66 13 -9 8 -42 13 -100 12 -78 0 -87 -2 -92 -20z m1554
-765 c0 -5 -4 -10 -10 -10 -5 0 -10 5 -10 10 0 6 5 10 10 10 6 0 10 -4 10 -10z
m90 -14 c0 -11 -19 -15 -25 -6 -3 5 1 10 9 10 9 0 16 -2 16 -4z m440 -170 c0
-9 -30 -14 -35 -6 -4 6 3 10 14 10 12 0 21 -2 21 -4z m-637 -35 c5 -1 6 -10 2
-21 -4 -13 2 -28 19 -45 26 -26 34 -55 16 -55 -5 0 -10 -9 -10 -20 0 -11 5
-20 12 -20 8 0 9 -3 1 -11 -10 -10 0 -56 19 -84 3 -6 9 -27 13 -48 6 -30 4
-37 -9 -37 -9 0 -16 8 -16 18 0 19 -20 76 -36 107 -6 11 -19 52 -29 90 -9 39
-22 80 -27 92 -13 26 -4 42 20 38 9 -2 21 -4 25 -4z m-113 -21 c0 -11 -7 -20
-15 -20 -15 0 -21 21 -8 33 12 13 23 7 23 -13z m23 -97 c-7 -2 -19 -2 -25 0
-7 3 -2 5 12 5 14 0 19 -2 13 -5z m-61 -25 c-13 -13 -131 -29 -147 -19 -15 8
64 29 115 30 34 1 41 -2 32 -11z m528 -62 c0 -8 -4 -18 -10 -21 -5 -3 -10 -4
-10 -1 0 2 -3 11 -6 20 -4 11 -1 16 10 16 9 0 16 -6 16 -14z m620 4 c0 -5 -2
-10 -4 -10 -3 0 -8 5 -11 10 -3 6 -1 10 4 10 6 0 11 -4 11 -10z m25 -39 c3 -5
1 -12 -5 -16 -5 -3 -10 1 -10 9 0 18 6 21 15 7z m1002 -37 c-3 -3 -12 -4 -19
-1 -8 3 -5 6 6 6 11 1 17 -2 13 -5z m-1657 -54 c0 -5 -2 -10 -4 -10 -3 0 -8 5
-11 10 -3 6 -1 10 4 10 6 0 11 -4 11 -10z m95 -10 c3 -5 1 -10 -4 -10 -6 0
-11 5 -11 10 0 6 2 10 4 10 3 0 8 -4 11 -10z m-382 -30 c3 -11 1 -20 -4 -20
-5 0 -9 9 -9 20 0 11 2 20 4 20 2 0 6 -9 9 -20z m767 -60 c0 -5 -8 -10 -18
-10 -11 0 -27 -9 -37 -20 -10 -11 -29 -20 -42 -20 -52 0 -7 47 52 53 22 2 41
4 43 5 1 1 2 -2 2 -8z m-1997 -7 c-7 -2 -19 -2 -25 0 -7 3 -2 5 12 5 14 0 19
-2 13 -5z m1244 -15 c-3 -8 -6 -5 -6 6 -1 11 2 17 5 13 3 -3 4 -12 1 -19z
m1073 -30 c0 -6 -7 -5 -15 2 -8 7 -15 17 -15 22 0 6 7 5 15 -2 8 -7 15 -17 15
-22z m-1120 12 c0 -5 -6 -10 -14 -10 -8 0 -18 5 -21 10 -3 6 3 10 14 10 12 0
21 -4 21 -10z m1140 -44 c0 -3 -4 -8 -10 -11 -5 -3 -10 -1 -10 4 0 6 5 11 10
11 6 0 10 -2 10 -4z m15 -36 c3 -5 1 -10 -4 -10 -6 0 -11 5 -11 10 0 6 2 10 4
10 3 0 8 -4 11 -10z m25 -30 c0 -5 -2 -10 -4 -10 -3 0 -8 5 -11 10 -3 6 -1 10
4 10 6 0 11 -4 11 -10z m45 -71 c9 -17 14 -34 10 -37 -8 -8 -32 19 -40 46 -10
33 12 27 30 -9z m-506 -27 c-8 -25 -7 -38 7 -67 13 -27 14 -39 5 -48 -8 -8
-11 -4 -11 16 0 15 -3 27 -8 27 -8 0 -30 46 -33 70 -3 29 1 39 19 43 27 6 33
-6 21 -41z m-179 -2 c0 -5 -2 -10 -4 -10 -3 0 -8 5 -11 10 -3 6 -1 10 4 10 6
0 11 -4 11 -10z m1491 -21 c9 -18 9 -19 -10 -7 -12 7 -21 19 -21 26 0 17 17 7
31 -19z m-762 -25 c6 -15 10 -28 8 -31 -7 -7 -37 28 -37 43 0 23 16 16 29 -12z
m544 -5 c35 -2 51 2 68 17 8 8 20 14 25 14 5 0 -8 -16 -30 -34 l-39 -34 34
-49 c19 -26 37 -50 40 -53 4 -3 9 -16 13 -30 6 -24 6 -24 -9 3 -9 15 -20 27
-25 27 -5 0 -17 14 -25 31 -9 16 -25 39 -36 50 -20 20 -20 20 -57 1 -52 -27
-138 -54 -158 -50 -11 2 3 12 37 28 30 14 58 30 62 37 4 7 21 13 37 13 27 0
30 3 31 33 1 17 3 24 6 15 2 -10 14 -19 26 -19z m-474 -104 c10 -22 22 -48 25
-57 3 -10 12 -18 21 -18 17 0 112 37 197 78 4 1 5 -4 2 -13 -6 -15 -140 -85
-163 -85 -18 0 -18 -25 1 -58 19 -35 23 -52 11 -52 -5 0 -16 18 -25 40 -19 45
-35 49 -103 25 -60 -22 -67 -20 -47 15 9 16 25 30 34 30 9 0 28 5 41 11 l24
11 -38 64 c-22 35 -39 66 -39 69 0 17 42 -26 59 -60z m-496 -17 c7 -25 -10
-23 -18 2 -3 11 -11 20 -16 20 -5 0 -9 5 -9 10 0 16 38 -12 43 -32z m-128 22
c-3 -5 -18 -10 -33 -9 -24 0 -25 1 -7 9 28 12 47 12 40 0z m55 -21 c0 -6 -4
-7 -10 -4 -5 3 -10 11 -10 16 0 6 5 7 10 4 6 -3 10 -11 10 -16z m1363 7 c4
-10 1 -13 -9 -9 -7 3 -14 9 -14 14 0 14 17 10 23 -5z m-2533 -42 c0 -13 -4
-24 -10 -24 -5 0 -10 14 -10 31 0 17 4 28 10 24 6 -3 10 -17 10 -31z m1680 9
c0 -13 -3 -13 -15 -3 -8 7 -15 16 -15 21 0 5 7 6 15 3 8 -4 15 -13 15 -21z
m-1120 7 c0 -5 -4 -10 -10 -10 -5 0 -10 5 -10 10 0 6 5 10 10 10 6 0 10 -4 10
-10z m55 0 c3 -5 -1 -10 -9 -10 -9 0 -16 5 -16 10 0 6 4 10 9 10 6 0 13 -4 16
-10z m105 -20 c0 -5 -19 -9 -42 -9 l-43 2 35 7 c19 4 38 8 43 9 4 0 7 -3 7 -9z
m480 -21 c0 -18 -2 -19 -15 -9 -8 7 -15 16 -15 21 0 5 7 9 15 9 9 0 15 -9 15
-21z m-540 -5 c0 -2 -11 -4 -25 -4 -14 0 -25 4 -25 9 0 4 11 6 25 3 14 -2 25
-6 25 -8z m466 -10 c-9 -9 -20 -14 -23 -10 -4 3 2 13 13 20 25 18 31 12 10
-10z m-349 -26 c-3 -7 -5 -2 -5 12 0 14 2 19 5 13 2 -7 2 -19 0 -25z m-457 12
c0 -5 -2 -10 -4 -10 -3 0 -8 5 -11 10 -3 6 -1 10 4 10 6 0 11 -4 11 -10z m247
-12 c-3 -8 -6 -5 -6 6 -1 11 2 17 5 13 3 -3 4 -12 1 -19z m-560 -25 c-3 -10
-5 -4 -5 12 0 17 2 24 5 18 2 -7 2 -21 0 -30z m628 27 c3 -5 2 -10 -4 -10 -5
0 -13 5 -16 10 -3 6 -2 10 4 10 5 0 13 -4 16 -10z m5 -35 c0 -8 -6 -15 -14
-15 -7 0 -27 -7 -42 -15 -34 -17 -54 -19 -54 -5 0 6 7 10 15 10 8 0 15 5 15
10 0 6 11 10 24 10 14 0 28 5 31 10 9 15 25 12 25 -5z m157 -7 c-3 -8 -6 -5
-6 6 -1 11 2 17 5 13 3 -3 4 -12 1 -19z m-312 -29 c11 -17 0 -20 -21 -4 -17
13 -17 14 -2 15 9 0 20 -5 23 -11z m322 -31 c-3 -7 -5 -2 -5 12 0 14 2 19 5
13 2 -7 2 -19 0 -25z m717 17 c-6 -15 -70 -32 -81 -21 -10 10 4 19 44 26 21 4
39 8 40 9 1 0 0 -6 -3 -14z m-1124 -5 c0 -5 -5 -10 -11 -10 -5 0 -7 5 -4 10 3
6 8 10 11 10 2 0 4 -4 4 -10z m-43 -6 c-3 -3 -12 -4 -19 -1 -8 3 -5 6 6 6 11
1 17 -2 13 -5z m1519 -41 c-4 -4 -11 -1 -16 7 -16 25 -11 35 7 17 9 -9 13 -20
9 -24z m-519 -5 c-3 -8 -6 -5 -6 6 -1 11 2 17 5 13 3 -3 4 -12 1 -19z m-757
-18 c0 -5 -7 -10 -16 -10 -8 0 -12 5 -9 10 3 6 10 10 16 10 5 0 9 -4 9 -10z
m1300 -11 c0 -6 -4 -7 -10 -4 -5 3 -10 11 -10 16 0 6 5 7 10 4 6 -3 10 -11 10
-16z m-1340 1 c0 -5 -9 -10 -20 -10 -11 0 -20 5 -20 10 0 6 9 10 20 10 11 0
20 -4 20 -10z m1400 -100 c0 -5 -4 -10 -10 -10 -5 0 -10 5 -10 10 0 6 5 10 10
10 6 0 10 -4 10 -10z"/>
<path d="M975 2210 c3 -5 10 -10 16 -10 5 0 9 5 9 10 0 6 -7 10 -16 10 -8 0
-12 -4 -9 -10z"/>
<path d="M360 2150 c0 -56 26 -80 88 -80 53 1 126 32 99 43 -9 3 -28 0 -42 -7
-19 -10 -36 -11 -70 -3 -42 10 -46 13 -51 49 -8 50 -24 49 -24 -2z"/>
<path d="M980 2145 c0 -4 7 -20 16 -36 9 -18 12 -38 8 -47 -11 -26 -10 -36 4
-52 8 -8 28 -37 45 -65 50 -78 69 -47 25 39 -11 21 -28 48 -39 59 -13 15 -16
25 -9 38 13 24 12 32 -2 23 -9 -6 -9 -3 0 9 8 9 11 21 7 27 -6 10 -55 15 -55
5z"/>
<path d="M3634 2015 c-3 -8 -3 -19 1 -25 3 -5 1 -10 -4 -10 -6 0 -11 6 -11 14
0 11 -12 15 -40 14 -46 0 -46 -1 -24 -74 19 -67 44 -118 44 -91 0 10 -7 32
-16 48 -8 17 -13 38 -11 47 2 12 8 6 19 -18 9 -19 28 -47 44 -61 30 -28 104
-48 104 -29 0 5 -4 10 -10 10 -5 0 -10 7 -10 15 0 8 -4 15 -9 15 -14 0 -63 89
-56 100 3 6 18 10 33 10 l27 0 -29 25 c-33 29 -44 31 -52 10z"/>
<path d="M3487 1993 c-4 -3 -7 -25 -7 -49 0 -34 -5 -46 -27 -62 l-26 -19 46
-7 c38 -6 49 -12 62 -38 20 -41 20 -41 -15 -33 -22 5 -35 2 -47 -11 -17 -16
-16 -17 26 -11 31 4 51 1 68 -10 35 -23 39 -8 9 37 -14 22 -36 76 -49 120 -24
84 -29 94 -40 83z"/>
<path d="M3750 1880 c0 -5 5 -10 11 -10 5 0 7 5 4 10 -3 6 -8 10 -11 10 -2 0
-4 -4 -4 -10z"/>
<path d="M3800 1820 c0 -5 7 -10 16 -10 8 0 12 5 9 10 -3 6 -10 10 -16 10 -5
0 -9 -4 -9 -10z"/>
<path d="M3625 1780 c4 -6 11 -8 16 -5 14 9 11 15 -7 15 -8 0 -12 -5 -9 -10z"/>
<path d="M3725 1750 c3 -5 15 -10 26 -10 10 0 19 5 19 10 0 6 -12 10 -26 10
-14 0 -23 -4 -19 -10z"/>
<path d="M3580 1720 c0 -5 9 -10 21 -10 11 0 17 5 14 10 -3 6 -13 10 -21 10
-8 0 -14 -4 -14 -10z"/>
<path d="M4088 1723 c7 -3 16 -2 19 1 4 3 -2 6 -13 5 -11 0 -14 -3 -6 -6z"/>
<path d="M3673 1703 c9 -14 47 -24 47 -12 0 5 -4 9 -9 9 -5 0 -17 3 -27 7 -11
4 -15 3 -11 -4z"/>
<path d="M3750 1696 c0 -9 6 -16 14 -16 8 0 16 -5 18 -11 2 -5 19 -14 38 -19
19 -5 45 -12 58 -16 21 -6 20 -3 -10 30 -26 28 -45 39 -76 43 -34 5 -42 3 -42
-11z"/>
<path d="M3893 1692 c10 -10 17 -24 17 -30 0 -7 6 -12 13 -12 8 0 13 9 12 21
-1 22 -21 39 -44 39 -11 0 -11 -4 2 -18z"/>
<path d="M3413 1683 c-37 -14 28 -53 89 -53 18 0 44 -6 58 -13 14 -7 48 -19
75 -27 28 -7 57 -19 66 -27 35 -29 37 -10 4 36 -48 67 -61 77 -80 61 -17 -14
-60 -6 -82 15 -14 15 -102 20 -130 8z m84 -19 c-3 -3 -12 -4 -19 -1 -8 3 -5 6
6 6 11 1 17 -2 13 -5z"/>
<path d="M5388 1638 c-21 -20 -38 -41 -38 -46 0 -6 -16 -26 -35 -45 -19 -19
-35 -37 -35 -40 0 -2 11 -7 25 -9 17 -4 25 -1 25 9 0 7 10 17 23 22 13 5 29
16 36 25 7 9 20 16 27 16 16 0 19 16 4 25 -8 5 -7 11 0 20 6 8 10 24 8 37 -3
22 -4 22 -40 -14z"/>
<path d="M3950 1625 c0 -8 2 -15 4 -15 2 0 12 -3 21 -7 15 -5 16 -3 6 15 -13
25 -31 29 -31 7z"/>
<path d="M3757 1616 c4 -13 3 -17 -5 -12 -7 4 -12 3 -12 -1 0 -5 9 -14 20 -21
11 -7 20 -18 20 -26 0 -13 73 -56 95 -56 4 0 32 -12 61 -26 43 -21 56 -24 74
-14 21 11 20 12 -21 58 -35 39 -98 75 -140 81 -12 2 -6 -35 9 -52 8 -9 13 -20
9 -23 -9 -9 -27 5 -27 22 0 8 -6 14 -14 14 -8 0 -28 17 -45 38 -17 20 -28 28
-24 18z"/>
<path d="M4005 1590 c3 -5 18 -10 33 -10 21 0 24 2 12 10 -20 13 -53 13 -45 0z"/>
<path d="M3423 1582 c-31 -5 -29 -22 2 -22 14 0 25 -4 25 -9 0 -5 16 -15 35
-22 19 -7 35 -16 35 -19 0 -10 171 -90 191 -89 8 0 -1 7 -19 15 -19 8 -43 24
-55 34 -11 11 -26 20 -33 20 -6 0 -17 7 -24 15 -16 19 -68 45 -92 45 -11 0
-17 4 -13 9 8 14 -25 28 -52 23z"/>
<path d="M3329 1538 c9 -24 40 -46 111 -78 25 -11 52 -25 60 -30 8 -6 23 -13
33 -16 9 -4 17 -10 17 -14 0 -14 84 -43 88 -31 2 6 10 11 18 11 9 0 13 4 9 9
-7 13 -144 81 -162 81 -12 0 -70 35 -83 51 -8 10 -43 26 -72 33 -25 6 -27 4
-19 -16z"/>
<path d="M3633 1525 c20 -14 42 -23 47 -20 5 3 8 0 5 -7 -3 -8 13 -22 40 -37
25 -13 45 -28 45 -32 0 -5 7 -9 15 -9 8 0 22 -11 30 -24 18 -27 64 -61 72 -53
2 3 -19 39 -48 81 -54 77 -64 84 -144 99 -11 2 -33 9 -48 15 -47 20 -54 13
-14 -13z"/>
<path d="M4009 1538 c6 -7 23 -29 39 -48 16 -19 37 -50 46 -67 9 -18 21 -33
25 -33 5 0 16 -2 24 -5 10 -5 13 2 11 27 -3 48 -14 78 -29 78 -7 0 -18 7 -25
15 -7 9 -15 13 -18 11 -2 -3 -16 4 -30 14 -28 23 -59 28 -43 8z"/>
<path d="M4195 1540 c-7 -12 2 -12 30 0 19 8 19 9 -2 9 -12 1 -25 -3 -28 -9z"/>
<path d="M4220 1520 c0 -5 5 -10 10 -10 6 0 10 5 10 10 0 6 -4 10 -10 10 -5 0
-10 -4 -10 -10z"/>
<path d="M2987 1490 c-3 -11 -2 -20 3 -20 4 0 10 9 13 20 3 11 2 20 -3 20 -4
0 -10 -9 -13 -20z"/>
<path d="M4276 1486 c3 -8 20 -18 37 -22 18 -3 40 -13 50 -22 20 -18 23 -7 3
14 -8 8 -23 14 -34 14 -11 0 -22 7 -26 15 -3 8 -12 15 -20 15 -9 0 -13 -6 -10
-14z"/>
<path d="M3850 1451 c0 -5 9 -13 20 -16 11 -3 20 -14 20 -23 0 -26 46 -89 77
-106 16 -8 47 -23 69 -34 50 -24 104 -70 104 -89 0 -18 -13 -16 -38 7 -25 24
-29 24 -49 5 -16 -16 -11 -45 7 -45 6 0 8 -5 5 -11 -7 -10 41 -115 56 -125 4
-2 27 2 51 10 24 7 66 19 93 26 28 7 54 16 59 21 5 4 -8 27 -28 50 -20 23 -36
46 -36 51 0 4 -18 27 -40 50 -22 24 -40 46 -40 50 0 4 -17 26 -37 49 -44 48
-149 101 -205 103 -22 0 -38 6 -38 12 0 7 -7 15 -16 18 -22 9 -34 7 -34 -3z
m247 -281 c8 -13 9 -21 2 -25 -13 -8 -39 13 -39 31 0 21 23 17 37 -6z m83 -57
c0 -9 7 -25 17 -35 18 -20 8 -23 -34 -12 -25 7 -31 42 -11 62 14 14 28 6 28
-15z"/>
<path d="M4020 1441 c0 -5 9 -11 20 -14 24 -6 27 8 4 17 -21 8 -24 8 -24 -3z"/>
<path d="M3020 1430 l-25 -6 23 -8 c12 -4 22 -13 22 -19 0 -7 5 -4 11 6 14 24
1 36 -31 27z"/>
<path d="M4257 1433 c12 -2 28 -17 35 -34 7 -16 20 -31 29 -34 27 -9 79 -52
72 -59 -4 -4 1 -4 11 0 16 6 18 2 14 -35 -3 -41 -2 -44 37 -70 22 -15 48 -30
58 -34 9 -4 17 -13 17 -22 0 -18 29 -19 53 -1 16 12 13 17 -30 60 -31 32 -53
46 -65 43 -10 -3 -18 -1 -18 5 0 5 -9 22 -20 38 -11 15 -17 30 -13 34 3 3 -4
6 -16 6 -17 0 -21 4 -17 16 3 8 2 13 -3 10 -4 -3 -19 6 -31 19 -13 14 -27 25
-32 25 -5 0 -18 9 -30 20 -12 11 -33 19 -47 19 -23 -2 -24 -2 -4 -6z"/>
<path d="M2925 1420 c-3 -6 7 -27 24 -47 17 -21 31 -45 31 -55 0 -18 67 -78
88 -78 7 0 24 7 37 16 18 12 24 24 23 50 -1 20 -6 34 -14 34 -6 0 -15 7 -18
16 -4 10 -13 13 -26 9 -11 -4 -20 -2 -20 4 0 6 -7 8 -15 5 -21 -8 -73 17 -78
38 -6 20 -22 24 -32 8z"/>
<path d="M4160 1420 c0 -5 5 -10 11 -10 5 0 7 5 4 10 -3 6 -8 10 -11 10 -2 0
-4 -4 -4 -10z"/>
<path d="M4231 1401 c-8 -5 -9 -11 -3 -15 5 -3 12 1 16 9 6 17 6 18 -13 6z"/>
<path d="M4180 1370 c8 -5 22 -10 30 -10 13 0 13 1 0 10 -8 5 -22 10 -30 10
-13 0 -13 -1 0 -10z"/>
<path d="M3662 1351 c-9 -5 39 -43 156 -123 93 -64 181 -128 196 -143 15 -15
30 -25 33 -21 3 3 -11 38 -32 78 -79 152 -84 156 -210 198 -63 21 -121 25
-143 11z"/>
<path d="M3174 1303 c2 -20 10 -29 25 -31 26 -4 27 8 1 36 -27 28 -29 28 -26
-5z"/>
<path d="M4988 1303 c7 -3 16 -2 19 1 4 3 -2 6 -13 5 -11 0 -14 -3 -6 -6z"/>
<path d="M4205 1280 c3 -5 10 -10 16 -10 5 0 9 5 9 10 0 6 -7 10 -16 10 -8 0
-12 -4 -9 -10z"/>
<path d="M4357 1274 c6 -15 23 -19 23 -5 0 5 -7 11 -14 14 -10 4 -13 1 -9 -9z"/>
<path d="M4270 1260 c0 -5 5 -10 11 -10 5 0 7 5 4 10 -3 6 -8 10 -11 10 -2 0
-4 -4 -4 -10z"/>
<path d="M4025 1230 c3 -5 14 -10 23 -10 15 0 15 2 2 10 -20 13 -33 13 -25 0z"/>
<path d="M3093 1223 c-19 -7 -16 -19 12 -47 24 -24 25 -24 25 -5 0 11 5 29 10
40 9 16 7 19 -12 18 -13 0 -29 -3 -35 -6z"/>
<path d="M4862 1189 c-15 -5 -22 -16 -20 -26 5 -28 33 -27 46 2 18 39 16 41
-26 24z"/>
<path d="M4318 1143 c7 -3 16 -2 19 1 4 3 -2 6 -13 5 -11 0 -14 -3 -6 -6z"/>
<path d="M3537 1059 c121 -127 173 -179 178 -179 9 0 5 38 -4 42 -6 2 -43 35
-83 74 -40 38 -91 83 -113 99 -34 25 -31 19 22 -36z"/>
<path d="M5120 1100 c0 -13 5 -18 15 -14 8 4 15 12 15 20 0 8 -7 14 -15 14 -8
0 -15 -9 -15 -20z"/>
<path d="M5090 1041 c0 -16 3 -36 6 -45 12 -30 19 -16 16 29 -4 50 -22 62 -22
16z"/>
<path d="M4450 970 c0 -5 5 -10 11 -10 5 0 7 5 4 10 -3 6 -8 10 -11 10 -2 0
-4 -4 -4 -10z"/>
<path d="M4470 945 c0 -18 19 -40 26 -32 4 4 0 15 -9 24 -9 10 -17 13 -17 8z"/>
<path d="M4511 894 c0 -11 3 -14 6 -6 3 7 2 16 -1 19 -3 4 -6 -2 -5 -13z"/>
<path d="M5378 863 c12 -2 30 -2 40 0 9 3 -1 5 -23 4 -22 0 -30 -2 -17 -4z"/>
<path d="M5405 820 c3 -5 10 -10 16 -10 5 0 9 5 9 10 0 6 -7 10 -16 10 -8 0
-12 -4 -9 -10z"/>
</g>
</svg>
